<svg width="24" height="24" viewBox="0 0 24 24" fill="none" xmlns="http://www.w3.org/2000/svg">
<path d="M9.1802 2.46117C9.68525 1.93639 10.5252 1.93639 11.0303 2.46117V2.46117C11.5084 2.95794 11.5087 3.74365 11.0311 4.24085L4.83786 10.6875L22.6874 10.6875C23.4123 10.6875 23.9999 11.2751 23.9999 12V12C23.9999 12.7249 23.4123 13.3125 22.6874 13.3125L4.83786 13.3125L11.0352 19.7404C11.5174 20.2405 11.5177 21.0323 11.036 21.5329V21.5329C10.5278 22.0609 9.68263 22.0609 9.17444 21.5329L1.3347 13.3869C0.58942 12.6125 0.589418 11.3875 1.3347 10.6131L9.1802 2.46117Z" fill="#218BCB"/>
</svg>
