<svg width="20" height="20" viewBox="0 0 20 20" fill="none" xmlns="http://www.w3.org/2000/svg">
<g clip-path="url(#clip0_1_851)">
<path d="M4.43027 16.1987C4.9372 15.0044 6.12079 14.1667 7.50002 14.1667H12.5C13.8793 14.1667 15.0628 15.0044 15.5698 16.1987M13.3334 7.9167C13.3334 9.75765 11.841 11.25 10 11.25C8.15907 11.25 6.66669 9.75765 6.66669 7.9167C6.66669 6.07575 8.15907 4.58337 10 4.58337C11.841 4.58337 13.3334 6.07575 13.3334 7.9167ZM18.3334 10C18.3334 14.6024 14.6024 18.3334 10 18.3334C5.39765 18.3334 1.66669 14.6024 1.66669 10C1.66669 5.39766 5.39765 1.6667 10 1.6667C14.6024 1.6667 18.3334 5.39766 18.3334 10Z" stroke="#444444" stroke-width="1.4" stroke-linecap="round" stroke-linejoin="round"/>
</g>
<defs>
<clipPath id="clip0_1_851">
<rect width="20" height="20" fill="white"/>
</clipPath>
</defs>
</svg>
